<svg width="18" height="24" viewBox="0 0 18 24" fill="none" xmlns="http://www.w3.org/2000/svg">
<path d="M9 0C4.06505 0 0.0502586 4.01641 0.0502586 8.9533C0.0502586 16.3089 8.10917 23.4911 8.45236 23.7933C8.6088 23.9311 8.80436 24.0001 9 24.0001C9.19563 24.0001 9.39119 23.9312 9.54771 23.7933C9.89074 23.4912 17.9497 16.309 17.9497 8.9533C17.9497 4.01641 13.9349 0 9 0ZM9 22.0355C7.21826 20.309 1.70763 14.518 1.70763 8.9533C1.70763 4.93035 4.97899 1.65738 9 1.65738C13.021 1.65738 16.2924 4.93035 16.2924 8.9533C16.2924 14.5179 10.7817 20.3089 9 22.0355Z" fill="#333333"/>
<path d="M8.99999 4.78247C6.7153 4.78247 4.85664 6.6535 4.85664 8.95329C4.85664 11.2532 6.7153 13.1241 8.99999 13.1241C11.2847 13.1241 13.1433 11.2532 13.1433 8.95329C13.1433 6.6535 11.2847 4.78247 8.99999 4.78247ZM8.99999 11.4667C7.62916 11.4667 6.51393 10.3392 6.51393 8.95329C6.51393 7.56744 7.62916 6.43984 8.99999 6.43984C10.3708 6.43984 11.486 7.56735 11.486 8.95329C11.486 10.3392 10.3708 11.4667 8.99999 11.4667Z" fill="#333333"/>
</svg>
